<?xml version="1.0" encoding="utf-8"?>
<!-- Uploaded to: SVG Repo, www.svgrepo.com, Generator: SVG Repo Mixer Tools -->
<svg width="800px" height="800px" viewBox="0 0 1024 1024" class="icon"  version="1.1" xmlns="http://www.w3.org/2000/svg"><path d="M832 192h128v768H64V192h128V64h64v128h512V64h64v128z m0 64H128v640h768V256h-64z m-512 384V448H128V384h192V256h64v128h256V256h64v128h192v64H384v448H320v-192H128v-64h192z m304 128c-37.312-43.52-80-81.728-112-92.608l74.688-43.52 32 65.28 10.624-21.76c16-38.144 64-125.248 133.376-163.392v21.76c-5.376 27.264-5.376 49.024 5.312 76.288-37.312 10.88-117.312 108.928-144 157.952z" fill="#000000" /></svg>